<svg xmlns="http://www.w3.org/2000/svg" viewBox="0 0 64 64" id="intelligent">
    <g>
        <path fill="#0a0f26"
              d="M47.92 58H41a1 1 0 010-2h6.92C51.83 56 55 53.31 55 50V41a1 1 0 012 0v9C57 54.41 52.93 58 47.92 58zM56 24a1 1 0 01-1-1V8a1 1 0 012 0V23A1 1 0 0156 24zM8 24a1 1 0 01-1-1V8A1 1 0 019 8V23A1 1 0 018 24z"/>
        <path fill="#0ff2b2"
              d="M57 22H52a1 1 0 00-1 1V41a1 1 0 001 1h5a3 3 0 003-3V25A3 3 0 0057 22zM12 22H7a3 3 0 00-3 3V39a3 3 0 003 3h5a1 1 0 001-1V23A1 1 0 0012 22z"/>
        <rect width="42" height="34" x="11" y="15" fill="#6b71f2" rx="7" ry="7"/>
        <path fill="#fff"
              d="M43.93,20H38.07a3,3,0,0,0-2.5,1.34l-.81,1.21a1,1,0,0,1-.83.45H30.07a1,1,0,0,1-.83-.45l-.81-1.21A3,3,0,0,0,25.93,20H20.07a4,4,0,0,0-4,4V39a4,4,0,0,0,4,4H43.93a4,4,0,0,0,4-4V24A4,4,0,0,0,43.93,20Z"/>
        <circle cx="39" cy="33" r="5" fill="#0a0f26"/>
        <circle cx="25" cy="33" r="5" fill="#0a0f26"/>
        <circle cx="8" cy="6" r="4" fill="#6b71f2"/>
        <circle cx="56" cy="6" r="4" fill="#6b71f2"/>
        <path fill="#0ff2b2" d="M37,52H33a5,5,0,0,0,0,10h4a5,5,0,0,0,0-10Z"/>
    </g>
</svg>
