<svg xmlns="http://www.w3.org/2000/svg" viewBox="0 0 64 64" id="chatbot">
    <path fill="#a4c0d8" d="M15 30v5a1 1 0 0 0 2 0v-5a1 1 0 0 0-2 0Z"/>
    <circle cx="16" cy="48" r="13" fill="#1dd2d1"/>
    <path fill="#2c9cc1"
          d="M18 59A12.992 12.992 0 0 1 7.867 37.867a12.994 12.994 0 1 0 18.266 18.266A12.937 12.937 0 0 1 18 59Z"/>
    <circle cx="48" cy="16" r="13" fill="#545a6d"/>
    <path fill="#44394a"
          d="M50 27A12.992 12.992 0 0 1 39.867 5.867a12.994 12.994 0 1 0 18.266 18.266A12.937 12.937 0 0 1 50 27Z"/>
    <circle cx="48" cy="10.8" r="3.467" fill="#f7fcff"/>
    <path fill="#d7e6ef"
          d="M49.5 12.767a3.441 3.441 0 0 1-3.073-5.04 3.457 3.457 0 1 0 4.646 4.646 3.431 3.431 0 0 1-1.573.394Z"/>
    <path fill="#f7fcff" d="M31 17V7a4 4 0 0 0-4-4H7a4 4 0 0 0-4 4v8a4 4 0 0 0 4 4h15l11 4Z"/>
    <path fill="#d7e6ef"
          d="M24 17H9a4 4 0 0 1-4-4V5a3.961 3.961 0 0 1 .36-1.64A3.994 3.994 0 0 0 3 7v8a4 4 0 0 0 4 4h15l11 4-1.034-3.1Z"/>
    <path fill="#f7fcff"
          d="M42.567 45.267 31.75 41.333l1.967 5.9v9.834A3.933 3.933 0 0 0 37.65 61h19.667a3.933 3.933 0 0 0 3.933-3.933V49.2a3.933 3.933 0 0 0-3.933-3.933Z"/>
    <path fill="#d7e6ef"
          d="M59.317 59H39.65a3.933 3.933 0 0 1-3.933-3.933v-9.834l-.933-2.8-3.034-1.1 1.967 5.9v9.834A3.933 3.933 0 0 0 37.65 61h19.667a3.93 3.93 0 0 0 3.591-2.342 3.9 3.9 0 0 1-1.591.342Z"/>
    <circle cx="11" cy="49" r="2" fill="#f1f2f2"/>
    <path fill="#d7e6ef" d="M12 50a1.992 1.992 0 0 1-1.82-2.82 2 2 0 1 0 2.64 2.64A1.99 1.99 0 0 1 12 50Z"/>
    <circle cx="22" cy="49" r="2" fill="#f1f2f2"/>
    <path fill="#d7e6ef" d="M23 50a1.992 1.992 0 0 1-1.82-2.82 2 2 0 1 0 2.64 2.64A1.99 1.99 0 0 1 23 50Z"/>
    <circle cx="16" cy="29" r="2" fill="#f7fcff"/>
    <path fill="#d7e6ef" d="M17 30a1.992 1.992 0 0 1-1.82-2.82 2 2 0 1 0 2.64 2.64A1.99 1.99 0 0 1 17 30Z"/>
    <circle cx="45" cy="38" r="2" fill="#f7fcff"/>
    <path fill="#d7e6ef" d="M46 39a1.992 1.992 0 0 1-1.82-2.82 2 2 0 1 0 2.64 2.64A1.99 1.99 0 0 1 46 39Z"/>
    <path fill="#f7fcff"
          d="M48 18.546a7.8 7.8 0 0 0-7.8 7.8v.036a12.929 12.929 0 0 0 15.6 0v-.036a7.8 7.8 0 0 0-7.8-7.8Z"/>
    <path fill="#d7e6ef"
          d="M49.75 28.871a12.916 12.916 0 0 0 6.05-2.5c0-.249-.014-.494-.036-.737a13.077 13.077 0 0 1-14.913-2.406 7.774 7.774 0 0 0-.651 3.15 12.975 12.975 0 0 0 9.55 2.493Z"/>
    <path fill="#a4c0d8"
          d="M8 9h17a1 1 0 0 0 0-2H8a1 1 0 0 0 0 2zm0 6h14a1 1 0 0 0 0-2H8a1 1 0 0 0 0 2zm47 34H38a1 1 0 0 0 0 2h17a1 1 0 0 0 0-2zm-3 6H38a1 1 0 0 0 0 2h14a1 1 0 0 0 0-2z"/>
    <path fill="#2c9cc1"
          d="M28.55 44.62H3.45a12.493 12.493 0 0 1 .71-2h23.68a12.493 12.493 0 0 1 .71 2zm-.71 8.76a13.589 13.589 0 0 1-1.14 2H5.3a13.589 13.589 0 0 1-1.14-2z"/>
    <path fill="#a4c0d8"
          d="M34 30h-1v-1a1 1 0 0 0-2 0v1h-1a1 1 0 0 0 0 2h1v1a1 1 0 0 0 2 0v-1h1a1 1 0 0 0 0-2zm27 4h-1v-1a1 1 0 0 0-2 0v1h-1a1 1 0 0 0 0 2h1v1a1 1 0 0 0 2 0v-1h1a1 1 0 0 0 0-2z"/>
</svg>
