<svg xmlns="http://www.w3.org/2000/svg" viewBox="0 0 64 64" id="file">
    <path fill="#ec455a"
          d="M44.625,44h0a1.35,1.35,0,0,1-1.285-.9,12,12,0,0,0-.567-1.368,1.353,1.353,0,0,1,.276-1.543,1.375,1.375,0,0,0,0-1.945l-2.3-2.3a1.375,1.375,0,0,0-1.945,0,1.353,1.353,0,0,1-1.543.276,12,12,0,0,0-1.368-.567,1.351,1.351,0,0,1-.9-1.285h0A1.376,1.376,0,0,0,33.625,33h-3.25A1.376,1.376,0,0,0,29,34.375h0a1.351,1.351,0,0,1-.895,1.285,12,12,0,0,0-1.368.567,1.353,1.353,0,0,1-1.543-.276,1.375,1.375,0,0,0-1.945,0l-2.3,2.3a1.375,1.375,0,0,0,0,1.945,1.353,1.353,0,0,1,.276,1.543,12,12,0,0,0-.567,1.368,1.35,1.35,0,0,1-1.285.9h0A1.376,1.376,0,0,0,18,45.375v3.25A1.376,1.376,0,0,0,19.375,50h0a1.35,1.35,0,0,1,1.285.9,12,12,0,0,0,.567,1.368,1.353,1.353,0,0,1-.276,1.543,1.375,1.375,0,0,0,0,1.945l2.3,2.3a1.375,1.375,0,0,0,1.945,0h0a1.353,1.353,0,0,1,1.543-.276,12,12,0,0,0,1.368.567A1.35,1.35,0,0,1,29,59.624h0A1.376,1.376,0,0,0,30.375,61h3.25A1.376,1.376,0,0,0,35,59.625h0a1.35,1.35,0,0,1,.9-1.285,12,12,0,0,0,1.368-.567,1.353,1.353,0,0,1,1.543.276h0a1.375,1.375,0,0,0,1.945,0l2.3-2.3a1.375,1.375,0,0,0,0-1.945,1.353,1.353,0,0,1-.276-1.543,12,12,0,0,0,.567-1.368,1.35,1.35,0,0,1,1.285-.9h0A1.376,1.376,0,0,0,46,48.625v-3.25A1.376,1.376,0,0,0,44.625,44ZM32,51a4,4,0,1,1,4-4A4,4,0,0,1,32,51Z"/>
    <path fill="#f6cc4f" d="M32,39a8,8,0,1,0,8,8A8,8,0,0,0,32,39Zm0,12a4,4,0,1,1,4-4A4,4,0,0,1,32,51Z"/>
    <rect width="32" height="34" x="29" y="3" fill="#6452e2"/>
    <polygon fill="#5bcbfa" points="57 15.03 57 41 27 41 27 7 49.96 7 50 7.05 50 15 56.97 15 57 15.03"/>
    <polygon fill="#48a3d2" points="50 7.05 56.97 15 50 15 50 7.05"/>
    <rect width="4" height="18" x="47" y="19" fill="#f6cc4f"/>
    <rect width="4" height="14" x="40" y="23" fill="#f6cc4f"/>
    <rect width="4" height="7" x="33" y="30" fill="#f6cc4f"/>
    <path fill="#f09898" d="M27,18v9l-3,4H18v3l-8,5H7V30H3V27l4-4V18a8,8,0,0,1,8-8h2v8Z"/>
    <path fill="#5bcbfa" d="M24.94,18H17V11A8,8,0,0,1,24.94,18Z"/>
    <polygon fill="#8b858c" points="21.98 31 22 37.2 20.23 39.47 16 42 13 42 13 37.13 18 34 18 31 21.98 31"/>
    <rect width="24" height="2" x="30" y="36" fill="#f3ac3c"/>
</svg>
