<svg xmlns="http://www.w3.org/2000/svg" viewBox="0 0 512 512" id="security-camera">
    <g>
        <g>
            <g>
                <polygon fill="#fdc75b" points="480.28 179.6 468.37 255.1 379.09 241.02 408.06 168.2 480.28 179.6"/>
            </g>
            <g>
                <polygon fill="#ed664c" points="424.11 127.85 408.06 168.2 75.41 115.72 82.01 73.87 424.11 127.85"/>
            </g>
            <g>
                <polygon fill="#fdc75b"
                         points="379.09 241.02 370.79 261.88 220.01 238.09 178.61 231.56 60.08 212.86 75.41 115.72 408.06 168.2 379.09 241.02"/>
            </g>
            <g>
                <polygon fill="#ed664c" points="220.01 238.09 73.38 384.72 73.38 336.79 178.61 231.56 220.01 238.09"/>
            </g>
            <g>
                <polygon fill="#ed664c"
                         points="73.38 384.72 73.38 438.13 31.72 438.13 31.72 296.9 73.38 296.9 73.38 336.79 73.38 384.72"/>
            </g>
        </g>
        <g>
            <path d="M481.527,171.7l-62.336-9.84,12.353-31.051a8,8,0,0,0-6.187-10.859l-342.1-53.98a8,8,0,0,0-9.15,6.656L52.178,211.613a8,8,0,0,0,6.655,9.149l102.82,16.252L81,317.476V296.9a7.6,7.6,0,0,0-7.62-7.9H31.72A7.68,7.68,0,0,0,24,296.9V438.13A7.656,7.656,0,0,0,31.72,446H73.38A7.574,7.574,0,0,0,81,438.13v-50.1l141.6-141.4,146.853,23.153a8.663,8.663,0,0,0,1.3.1,8.034,8.034,0,0,0,7.454-5.043l5.948-14.919L467.118,263a8,8,0,0,0,9.153-6.655l11.911-75.5A8,8,0,0,0,481.527,171.7Zm-68.549-37.506-9.99,25.109L84.557,109.064,88.666,83.02ZM65,430H40V305H65Zm16-64.594V340.1L181.2,240.1l21.758,3.448ZM365.721,252.981,69.229,206.205l12.833-81.336,314.863,49.674Zm95.994-7.029-71.492-11.275,22.9-57.578,58,9.156Z"/>
        </g>
    </g>
</svg>
