<svg xmlns="http://www.w3.org/2000/svg" xml:space="preserve" id="smart-farm" width="512" height="512" x="0" y="0"
     enable-background="new 0 0 512 512" version="1.1" viewBox="0 0 512 512">
  <g>
    <linearGradient id="SVGID_1_" x1="405.57" x2="405.57" y1="8.852" y2="519.22" gradientUnits="userSpaceOnUse">
      <stop offset="0" style="stop-color:#00ffed"/>
        <stop offset=".99" style="stop-color:#9d00c6"/>
    </linearGradient>
      <path fill="url(#SVGID_1_)" d="M474.16,415.172c-4.945,0-9.578,1.348-13.563,3.688l-14.895-14.882
		c-1.273-1.274-3.006-1.978-4.809-1.978h-28.268c21.747-23,38.32-51.606,47.986-83.068c1.104-3.592-0.912-7.406-4.506-8.506
		c-3.58-1.115-7.396,0.906-8.5,4.498c-19.531,63.564-69.135,113.162-132.688,132.688c-3.592,1.1-5.609,4.904-4.506,8.496
		c0.898,2.928,3.592,4.81,6.5,4.81c0.664,0,1.338,0.118,2.002-0.088c30.022-9.222,57.121-24.83,79.822-44.83h39.334l12.905,12.693
		c-2.339,3.982-3.687,8.509-3.687,13.454c0,14.811,12.053,26.815,26.869,26.815c14.814,0,26.867-12.085,26.867-26.896
		C501.027,427.248,488.975,415.172,474.16,415.172z M474.16,455.301c-7.313,0-13.262-5.949-13.262-13.26
		c0-7.312,5.949-13.261,13.262-13.261c7.311,0,13.26,5.949,13.26,13.261C487.42,449.352,481.471,455.301,474.16,455.301z"/>
      <linearGradient id="SVGID_2_" x1="106.459" x2="106.459" y1="8.852" y2="519.22" gradientUnits="userSpaceOnUse">
      <stop offset="0" style="stop-color:#00ffed"/>
          <stop offset=".99" style="stop-color:#9d00c6"/>
    </linearGradient>
      <path fill="url(#SVGID_2_)" d="M37.904,96.828c4.944,0,9.578-1.349,13.561-3.688l14.895,14.879
		c1.273,1.282,3.008,1.981,4.811,1.981h28.214c-21.753,23-38.33,51.609-47.997,83.072c-1.104,3.592,0.914,7.404,4.506,8.504
		c0.664,0.205,1.338,0.312,2.002,0.312c2.908,0,5.602-1.882,6.5-4.81c19.529-63.564,69.133-113.163,132.682-132.689
		c3.592-1.107,5.609-4.912,4.506-8.505c-1.104-3.6-4.938-5.818-8.502-4.71C163.064,60.395,135.971,76,113.271,96H73.99
		L61.086,83.311c2.34-3.984,3.688-8.513,3.688-13.456c0-14.818-12.053-26.815-26.869-26.815c-14.814,0-26.869,12.075-26.869,26.894
		C11.035,84.744,23.09,96.828,37.904,96.828z M37.904,56.699c7.311,0,13.262,5.949,13.262,13.26c0,7.312-5.951,13.261-13.262,13.261
		s-13.26-5.949-13.26-13.261C24.645,62.648,30.594,56.699,37.904,56.699z"/>
      <linearGradient id="SVGID_3_" x1="253.965" x2="253.965" y1="8.852" y2="519.22" gradientUnits="userSpaceOnUse">
      <stop offset="0" style="stop-color:#00ffed"/>
          <stop offset=".99" style="stop-color:#9d00c6"/>
    </linearGradient>
      <path fill="url(#SVGID_3_)" d="M253.824,115.579c-31.383,0-60.846,12.185-82.973,34.314c-2.654,2.658-2.654,6.971,0.004,9.629
		c2.66,2.65,6.967,2.65,9.625-0.008c19.551-19.551,45.602-30.327,73.344-30.327c27.83,0,53.979,10.824,73.629,30.469
		c1.328,1.33,3.07,1.994,4.811,1.994s3.484-0.664,4.814-1.994c2.654-2.658,2.654-6.97-0.004-9.628
		C314.854,127.819,285.291,115.579,253.824,115.579z"/>
      <linearGradient id="SVGID_4_" x1="253.961" x2="253.961" y1="8.852" y2="519.22" gradientUnits="userSpaceOnUse">
      <stop offset="0" style="stop-color:#00ffed"/>
          <stop offset=".99" style="stop-color:#9d00c6"/>
    </linearGradient>
      <path fill="url(#SVGID_4_)" d="M253.82,144.094c-23.779,0-46.07,9.241-62.77,26.015c-2.65,2.666-2.643,6.971,0.02,9.621
		c2.668,2.65,6.975,2.643,9.625-0.016c14.127-14.194,32.994-22.012,53.197-22.012c20.115,0,39.057,7.873,53.342,22.161
		c1.328,1.33,3.074,1.994,4.814,1.994s3.48-0.664,4.811-1.994c2.658-2.658,2.658-6.962,0.004-9.62
		C300.006,153.383,277.643,144.094,253.82,144.094z"/>
      <linearGradient id="SVGID_5_" x1="253.892" x2="253.892" y1="8.852" y2="519.22" gradientUnits="userSpaceOnUse">
      <stop offset="0" style="stop-color:#00ffed"/>
          <stop offset=".99" style="stop-color:#9d00c6"/>
    </linearGradient>
      <path fill="url(#SVGID_5_)" d="M253.793,172.688c-16.113,0.087-31.236,6.338-42.578,17.612c-2.666,2.643-2.682,6.954-0.031,9.62
		c2.646,2.667,6.955,2.683,9.621,0.032c8.797-8.743,20.539-13.585,33.023-13.656c12.529,0,24.297,4.874,33.131,13.712
		c1.33,1.329,3.074,1.993,4.814,1.993s3.482-0.664,4.811-1.993c2.658-2.659,2.658-6.963,0.004-9.621
		C285.18,178.97,269.996,172.688,253.793,172.688z"/>
      <linearGradient id="SVGID_6_" x1="106.428" x2="106.428" y1="8.852" y2="519.22" gradientUnits="userSpaceOnUse">
      <stop offset="0" style="stop-color:#00ffed"/>
          <stop offset=".99" style="stop-color:#9d00c6"/>
    </linearGradient>
      <path fill="url(#SVGID_6_)" d="M197.076,447.61c-63.549-19.526-113.148-69.126-132.682-132.69
		c-1.104-3.592-4.941-5.617-8.502-4.502c-3.592,1.1-5.609,4.922-4.506,8.514C61.053,350.394,77.627,379,99.374,402H71.104
		c-1.805,0-3.537,0.703-4.814,1.978l-14.891,14.888c-3.982-2.338-8.615-3.689-13.557-3.689c-14.814,0-26.869,12.048-26.869,26.867
		c0,14.811,12.055,26.867,26.869,26.867s26.869-12.059,26.869-26.869c0-4.943-1.348-9.364-3.687-13.348L73.924,416h39.337
		c22.701,20,49.798,35.607,79.819,44.83c0.666,0.205,1.338,0.194,2.002,0.194c2.908,0,5.602-1.937,6.5-4.864
		C202.686,452.568,200.668,448.71,197.076,447.61z M37.842,455.301c-7.311,0-13.26-5.949-13.26-13.26
		c0-7.312,5.949-13.261,13.26-13.261s13.26,5.949,13.26,13.261C51.102,449.352,45.152,455.301,37.842,455.301z"/>
      <linearGradient id="SVGID_7_" x1="405.539" x2="405.539" y1="8.852" y2="519.22" gradientUnits="userSpaceOnUse">
      <stop offset="0" style="stop-color:#00ffed"/>
          <stop offset=".99" style="stop-color:#9d00c6"/>
    </linearGradient>
      <path fill="url(#SVGID_7_)" d="M314.92,64.39c63.553,19.526,113.156,69.134,132.688,132.69c0.896,2.928,3.592,4.811,6.5,4.811
		c0.664,0,1.336-0.103,2-0.309c3.594-1.1,5.609-4.918,4.506-8.51C450.946,161.609,434.369,133,412.615,110h28.215
		c1.805,0,3.537-0.699,4.811-1.981l14.895-14.886c3.984,2.34,8.617,3.692,13.561,3.692c14.814,0,26.869-12.057,26.869-26.868
		c0-14.818-12.055-26.867-26.869-26.867s-26.869,12.051-26.869,26.869c0,4.943,1.348,9.366,3.688,13.351L438.01,96h-39.283
		c-22.698-20-49.793-35.605-79.811-44.826c-3.58-1.107-7.398,1.006-8.502,4.605C309.311,59.372,311.328,63.282,314.92,64.39z
		 M474.096,56.699c7.311,0,13.26,5.949,13.26,13.26c0,7.312-5.949,13.261-13.26,13.261s-13.26-5.949-13.26-13.261
		C460.836,62.648,466.785,56.699,474.096,56.699z"/>
      <linearGradient id="SVGID_8_" x1="256.001" x2="256.001" y1="8.852" y2="519.22" gradientUnits="userSpaceOnUse">
      <stop offset="0" style="stop-color:#00ffed"/>
          <stop offset=".99" style="stop-color:#9d00c6"/>
    </linearGradient>
      <path fill="url(#SVGID_8_)" d="M256,87.563c-92.877,0-168.436,75.559-168.436,168.437S163.123,424.437,256,424.437
		c92.879,0,168.438-75.559,168.438-168.437S348.879,87.563,256,87.563z M190.266,396.159c-0.297-0.423-0.598-0.839-0.891-1.266
		c4.275-11.892,10.59-10.879,21.461-9.154c3.504,0.562,7.133,1.14,10.748,1.14c7.049,0,12.896-2.216,18.549-4.367
		c5.068-1.923,9.854-3.742,15.199-3.742c5.344,0,10.131,1.819,15.199,3.742c5.656,2.151,11.504,4.367,18.553,4.367
		c3.615,0,7.244-0.578,10.748-1.14c11.175-1.776,17.541-2.776,21.881,10.429c-19.959,9.396-42.23,14.66-65.713,14.66
		C232.51,410.828,210.23,405.561,190.266,396.159z M337.561,255.28c-2.078-3.126-6.299-3.972-9.436-1.892
		c-23.68,15.757-38.681,28.136-53.748,50.675c0.686-20.86,6.641-37.776,17.848-50.429c16.477-18.609,44.43-28.048,83.076-28.048
		c2.346,0,4.746,0.039,7.188,0.11c-0.439,2.065-0.887,4.257-1.365,6.575c-7.098,34.717-18.98,92.814-78.41,92.814
		c-7.354,0-15.332-0.876-23.801-2.599c16.472-28.1,30.636-40.391,56.754-57.77C338.795,262.638,339.641,258.413,337.561,255.28z
		 M253.963,238.792c-5.748,0-10.424-4.677-10.424-10.429c0-5.743,4.676-10.42,10.424-10.42s10.428,4.677,10.428,10.42
		C264.391,234.115,259.711,238.792,253.963,238.792z M169.365,272.48c29.16,16.57,47.039,37.723,58.23,51.869
		c-7.836,1.16-14.713,1.65-20.791,1.65c0,0,0,0-0.004,0c-30.367,0-38.088-13.666-53.469-41.072
		c-5.941-10.578-12.553-22.309-21.703-35.34c10.215-3.695,20.385-5.541,30.338-5.541c21.314,0,40.541,8.588,54.139,24.166
		c10.15,11.628,16.213,26.393,17.613,42.109c-11.975-14.607-29.969-33.96-57.629-49.681c-3.264-1.852-7.426-0.71-9.281,2.558
		S166.098,270.621,169.365,272.48z M250,252.117c1,0.187,2.746,0.283,3.998,0.283c1.254,0,2.002-0.098,4.002-0.283v113.121
		c-1-0.047-1.846-0.078-2.633-0.078c-1.752,0-3.367,0.128-5.367,0.343V252.117z M333.885,389.765
		c-8.234-21.912-24.93-19.255-36.197-17.46c-3.121,0.499-6.068,0.966-8.604,0.966c-4.549,0-8.928-1.614-13.848-3.481
		c-1.324-0.503-2.236-1.021-4.236-1.521V334.74c11,2.621,21.883,3.955,31.584,3.955c70.537,0,84.4-67.457,91.811-103.693
		c1.127-5.499,2.128-10.246,3.125-14.004c0.523-1.971,0.148-4.075-1.051-5.736c-1.195-1.653-3.066-2.683-5.107-2.801
		c-50.953-2.967-87.971,7.88-109.459,32.146c-4.217,4.763-7.902,9.993-10.902,15.67v-15.247c4-4.324,6.871-10.199,6.871-16.666
		c0-13.252-10.721-24.028-23.973-24.028s-23.837,10.776-23.837,24.028c0,6.468,2.938,12.344,6.938,16.669v29.002
		c-3-5.255-6.505-10.206-10.479-14.759c-16.223-18.585-39.17-28.815-64.473-28.815c-14.432,0-29.188,3.339-43.785,9.938
		c-1.883,0.847-3.296,2.509-3.81,4.51c-0.516,2.002-0.103,4.122,1.136,5.776c11.385,15.175,19.083,29.004,25.878,41.102
		C157.146,319.714,168.467,340,206.801,340c0.004,0,0.004,0,0.004,0c8.555,0,18.195-1.217,30.195-3.25v32.52
		c-1,0.174-1.085,0.348-1.537,0.52c-4.918,1.867-9.248,3.481-13.797,3.481c-2.537,0-5.523-0.467-8.646-0.966
		c-11.152-1.777-27.647-4.398-35.973,16.815c-45.381-27.024-75.865-76.578-75.865-133.12c0-85.377,69.45-154.828,154.823-154.828
		S410.83,170.623,410.83,256C410.83,312.993,379.867,362.887,333.885,389.765z"/>
      <linearGradient id="SVGID_9_" x1="48.776" x2="48.776" y1="8.852" y2="519.22" gradientUnits="userSpaceOnUse">
      <stop offset="0" style="stop-color:#00ffed"/>
          <stop offset=".99" style="stop-color:#9d00c6"/>
    </linearGradient>
      <path fill="url(#SVGID_9_)" d="M20.096,256c0,15.816,12.863,28.681,28.68,28.681S77.457,271.816,77.457,256
		s-12.865-28.681-28.682-28.681S20.096,240.184,20.096,256z M63.848,256c0,8.308-6.76,15.072-15.072,15.072
		c-8.311,0-15.072-6.765-15.072-15.072c0-8.315,6.762-15.072,15.072-15.072C57.088,240.928,63.848,247.685,63.848,256z"/>
      <linearGradient id="SVGID_10_" x1="463.226" x2="463.226" y1="8.852" y2="519.22" gradientUnits="userSpaceOnUse">
      <stop offset="0" style="stop-color:#00ffed"/>
          <stop offset=".99" style="stop-color:#9d00c6"/>
    </linearGradient>
      <path fill="url(#SVGID_10_)" d="M434.545,256c0,15.816,12.863,28.681,28.68,28.681s28.682-12.864,28.682-28.681
		s-12.865-28.681-28.682-28.681S434.545,240.184,434.545,256z M478.297,256c0,8.308-6.76,15.072-15.072,15.072
		c-8.311,0-15.072-6.765-15.072-15.072c0-8.315,6.762-15.072,15.072-15.072C471.537,240.928,478.297,247.685,478.297,256z"/>
      <linearGradient id="SVGID_11_" x1="256.001" x2="256.001" y1="8.852" y2="519.22" gradientUnits="userSpaceOnUse">
      <stop offset="0" style="stop-color:#00ffed"/>
          <stop offset=".99" style="stop-color:#9d00c6"/>
    </linearGradient>
      <path fill="url(#SVGID_11_)" d="M256,77.452c15.816,0,28.686-12.865,28.686-28.681c0-15.816-12.869-28.681-28.686-28.681
		s-28.684,12.864-28.684,28.681C227.316,64.587,240.184,77.452,256,77.452z M256,33.699c8.313,0,15.076,6.765,15.076,15.072
		c0,8.315-6.764,15.072-15.076,15.072c-8.311,0-15.076-6.757-15.076-15.072C240.924,40.464,247.689,33.699,256,33.699z"/>
      <linearGradient id="SVGID_12_" x1="256.001" x2="256.001" y1="8.852" y2="519.22" gradientUnits="userSpaceOnUse">
      <stop offset="0" style="stop-color:#00ffed"/>
          <stop offset=".99" style="stop-color:#9d00c6"/>
    </linearGradient>
      <path fill="url(#SVGID_12_)" d="M256,434.54c-15.816,0-28.684,12.864-28.684,28.681s12.867,28.688,28.684,28.688
		s28.686-12.872,28.686-28.688S271.816,434.54,256,434.54z M256,478.301c-8.311,0-15.076-6.765-15.076-15.08
		c0-8.308,6.766-15.072,15.076-15.072c8.313,0,15.076,6.765,15.076,15.072C271.076,471.536,264.313,478.301,256,478.301z"/>
  </g>
</svg>
