<svg xmlns="http://www.w3.org/2000/svg" xml:space="preserve" width="512" height="512" id="voice-recognition">
  <path fill="#FFB600" fill-rule="evenodd"
        d="m262.215 417.508 14.495 60.433 138.688-.016c0-38.303-12.147-71.225 33.566-122.803 39.043-38.168 55.033-98.165 46.326-153.564-7.358-46.832-33.176-83.971-67.485-107.295-95.926-65.212-221.742-9.368-230.217 105.016l-39.856 88.093h32.744v31.023l44.509 22.865-33.788 24.188c.66 4.803 2.729 13.189 5.428 22.106 2.693 8.908 3.572 14.099 6.749 21.006 5.486 11.939 16.378 15.223 29.606 12.944 4.91-.847 11.568-2.247 19.235-3.996"
        clip-rule="evenodd"/>
    <path fill="#C156E8"
          d="M119.236 463.937a6.805 6.805 0 0 1-6.689-5.555L81.306 290.876l-13.173 70.607a6.8 6.8 0 0 1-6.69 5.562l-40.24.008a6.805 6.805 0 1 1 0-13.609l34.588-.008L74.617 252.51a6.806 6.806 0 0 1 6.689-5.554 6.8 6.8 0 0 1 6.689 5.554l31.241 167.506 11.382-61.018a6.805 6.805 0 0 1 6.689-5.555h40.244a6.804 6.804 0 1 1 0 13.609H142.96l-17.035 91.329a6.805 6.805 0 0 1-6.689 5.556"/>
    <path fill="#0C06F9"
          d="M79.49 170.866c-11.729 0-23.384-3.125-33.871-9.367-19.844-11.797-31.222-32.123-31.222-55.765 0-3.758 3.047-6.804 6.805-6.804s6.805 3.046 6.805 6.804c0 18.721 8.956 34.781 24.57 44.07 16.204 9.645 35.965 9.93 52.841.752 16.374-8.901 25.77-25.239 25.77-44.822a6.804 6.804 0 0 1 6.805-6.804 6.804 6.804 0 0 1 6.804 6.804c0 24.361-12.291 45.59-32.878 56.777-10.26 5.579-21.376 8.355-32.429 8.355"/>
    <path fill="#00D2FC" fill-rule="evenodd"
          d="M111.233 65.384v40.351c0 41.76-63.272 41.76-63.272 0V65.384c0-41.76 63.272-41.76 63.272 0"
          clip-rule="evenodd"/>
    <path fill="#0C06F9" d="M71.1 163.983h13.608v45.944H71.1z"/>
    <path fill="#0C06F9"
          d="M108.286 218.078H47.525a6.805 6.805 0 0 1-6.804-6.805 6.804 6.804 0 0 1 6.804-6.805h60.761a6.805 6.805 0 1 1 0 13.61"/>
    <path fill="#F58220"
          d="M447.712 224.7a6.75 6.75 0 0 1-4.763-1.946c-35.659-34.956-93.687-34.964-129.362.008-2.686 2.619-6.994 2.587-9.625-.104a6.8 6.8 0 0 1 .1-9.62c40.921-40.106 107.501-40.114 148.414 0a6.796 6.796 0 0 1 .095 9.62 6.77 6.77 0 0 1-4.859 2.042"/>
    <path fill="#F58220"
          d="M427.148 245.271a6.77 6.77 0 0 1-4.743-1.931c-24.748-24.061-63.521-24.061-88.271 0a6.8 6.8 0 0 1-9.621-.135c-2.622-2.689-2.56-7.002.135-9.621 30.065-29.234 77.178-29.242 107.243 0 2.694 2.619 2.758 6.932.135 9.621a6.76 6.76 0 0 1-4.878 2.066"/>
    <path fill="#F58220"
          d="M349.959 265.835a6.802 6.802 0 0 1-4.696-11.725c18.507-17.645 47.508-17.652 66.015-.008a6.8 6.8 0 0 1 .229 9.621 6.797 6.797 0 0 1-9.622.229c-13.244-12.619-33.986-12.619-47.229.008a6.77 6.77 0 0 1-4.697 1.875"/>
</svg>
